<svg width="24" height="24" viewBox="0 0 24 24" fill="none" xmlns="http://www.w3.org/2000/svg">
<path d="M18.8718 7.2L14.7692 3.1C14.1538 2.4 13.2308 2 12.3077 2H6.66667C5.23077 2 4 3.2 4 4.7V19.4C4 20.8 5.23077 22 6.66667 22H17.3333C18.7692 22 20 20.8 20 19.3V10.9V9.7C20 8.7 19.5897 7.8 18.8718 7.2Z" fill="black"/>
<path d="M14.7998 13H8.7998C8.1998 13 7.7998 13.4 7.7998 14C7.7998 14.6 8.1998 15 8.7998 15H14.7998C15.3998 15 15.7998 14.6 15.7998 14C15.7998 13.4 15.2998 13 14.7998 13Z" fill="white"/>
<path d="M11.7998 16H8.7998C8.1998 16 7.7998 16.4 7.7998 17C7.7998 17.6 8.1998 18 8.7998 18H11.7998C12.3998 18 12.7998 17.6 12.7998 17C12.7998 16.4 12.2998 16 11.7998 16Z" fill="white"/>
</svg>
