<svg width="14" height="14" viewBox="0 0 14 14" fill="none" xmlns="http://www.w3.org/2000/svg">
<path d="M5.13062 2.1917C5.63163 0.264258 8.36837 0.264258 8.86938 2.1917C9.09066 3.043 9.85917 3.63729 10.7388 3.63729H11.3335C13.1621 3.63729 14.0317 5.8885 12.6781 7.11784L11.5281 8.16229C10.9776 8.66223 10.7499 9.4263 10.937 10.146L11.3057 11.5646C11.7713 13.3559 9.6219 14.6557 8.25182 13.4114C7.54182 12.7666 6.45818 12.7666 5.74818 13.4114C4.37809 14.6557 2.22865 13.3559 2.69426 11.5646L3.06301 10.146C3.25009 9.4263 3.02242 8.66223 2.47194 8.16229L1.32189 7.11784C-0.0317454 5.8885 0.83794 3.63729 2.66649 3.63729H3.26124C4.14083 3.63729 4.90933 3.043 5.13062 2.1917Z" fill="#FFE600"/>
</svg>
