<svg xmlns="http://www.w3.org/2000/svg" width="29" height="28" 
fill="none">
<path fill="#FFE600" stroke="#000" 
d="m25.093 10.787.007.022.008.02c.323.805.106 1.831-.256 2.59l-3.12 3.112-.181.18.04.253.718 4.502.002.01a2.349 2.349 0 0 1-1.016 2.36c-.79.526-1.719.592-2.456.184l-3.899-2.15-.241-.133-.242.133-3.888 2.144c-.338.167-.67.25-1.102.25-.489 0-.91-.158-1.374-.434a2.349 2.349 0 0 1-1.006-2.353l.002-.011.718-4.502.04-.252-.18-.18-3.18-3.173c-.695-.693-.94-1.617-.602-2.544l.005-.014.004-.014c.245-.814.995-1.419 1.868-1.596l4.3-.715.258-.043.112-.235 1.947-4.088c.435-.866 1.193-1.357 2.115-1.357.915 0 1.67.483 2.11 1.447l.003.007L18.556 8.3l.115.242.266.038 4.308.614.01.002h.01c.805.081 1.573.741 1.828 1.591Z"/>
</svg>