<svg width="51" height="51" viewBox="0 0 51 51" fill="none" xmlns="http://www.w3.org/2000/svg">
<path d="M48.8353 38.6373C48.6233 36.7177 47.5635 35.2247 45.8678 34.1583L38.2373 29.6793C35.9058 28.3996 32.9383 28.8261 31.0307 30.5324L30.1828 31.3856C26.1556 28.8261 22.1284 24.7737 19.5849 20.7213L20.4327 19.8681C22.3404 18.1619 22.7643 15.1758 21.4925 12.8297L17.0414 5.15142C16.1935 3.44513 14.4979 2.3787 12.5902 2.16542C10.8946 1.95213 8.98693 2.59199 7.71518 3.8717L5.17167 6.43113C2.20424 9.41713 1.3564 13.4696 2.84012 17.0954C4.95971 22.001 8.56301 29.2527 15.1337 35.8646C21.7045 42.4764 28.9111 46.3156 33.7862 48.2351C35.0579 48.6617 36.3297 48.875 37.3895 48.875C39.933 48.875 42.4765 47.8086 44.3841 45.889L46.9276 43.3296C48.4113 42.2631 49.0472 40.3436 48.8353 38.6373Z" fill="#C69090"/>
<path fill-rule="evenodd" clip-rule="evenodd" d="M34.7746 16.2251C33.5901 15.0407 31.755 14.6017 30.4216 15.0461C29.3082 15.4173 28.1048 14.8156 27.7336 13.7022C27.3625 12.5888 27.9642 11.3854 29.0776 11.0142C32.096 10.0081 35.5796 11.0197 37.7798 13.2199C39.98 15.4201 40.9916 18.9038 39.9855 21.9221C39.6144 23.0355 38.4109 23.6372 37.2976 23.2661C36.1842 22.895 35.5825 21.6915 35.9536 20.5782C36.3981 19.2448 35.9591 17.4096 34.7746 16.2251Z" fill="#C69090"/>
<path fill-rule="evenodd" clip-rule="evenodd" d="M40.3195 10.6798C36.5209 6.88114 30.9994 5.54447 26.052 6.87646C24.9187 7.18157 23.7527 6.51022 23.4476 5.37697C23.1425 4.24372 23.8139 3.0777 24.9471 2.77259C31.3167 1.05771 38.418 2.76791 43.3247 7.67461C48.2314 12.5813 49.9416 19.6827 48.2267 26.0522C47.9216 27.1855 46.7556 27.8568 45.6224 27.5517C44.4891 27.2466 43.8178 26.0806 44.1229 24.9473C45.4549 19.9999 44.1182 14.4785 40.3195 10.6798Z" fill="#C69090"/>
</svg>
