<svg width="37" height="37" viewBox="0 0 37 37" fill="none" xmlns="http://www.w3.org/2000/svg">
<rect x="0.5" y="0.5" width="36" height="36" stroke="white"/>
<path d="M31.9128 26.3627C30.3711 22.6627 27.4419 19.8877 23.8961 18.5002C25.9003 16.9585 27.1336 14.4918 27.1336 11.871C27.1336 6.93766 23.2794 3.0835 18.5003 3.0835C13.7211 3.0835 9.86694 6.93766 9.86694 11.7168C9.86694 14.3377 11.1003 16.8043 13.1044 18.346C9.55861 19.7335 6.62944 22.5085 5.08777 26.2085C4.47111 27.7502 4.62527 29.6002 5.55027 30.9877C6.47527 32.5293 8.17111 33.3002 10.0211 33.3002H27.1336C28.9836 33.3002 30.5253 32.3752 31.6044 30.9877C32.5294 29.6002 32.6836 27.9043 31.9128 26.3627Z" fill="#C69090"/>
</svg>
