<svg width="16" height="20" viewBox="0 0 16 20" fill="none" xmlns="http://www.w3.org/2000/svg">
<path d="M7.99427 20H2.29018C1.38954 20 0.689037 19.495 0.288751 18.7879C-0.111536 17.9798 -0.0114644 17.0707 0.488894 16.3636L4.6919 10.404C4.79198 10.202 4.79198 9.89899 4.6919 9.69697L0.388822 3.63636C-0.111536 2.92929 -0.111536 2.0202 0.288751 1.21212C0.689037 0.505051 1.38954 0 2.29018 0H7.99427C9.09506 0 10.1958 0.505051 10.7963 1.51515L15.3996 8.08081C16.2001 9.29293 16.2001 10.9091 15.3996 12.0202L10.7963 18.5859C10.1958 19.3939 9.09506 20 7.99427 20ZM2.29018 2.0202C2.09004 2.0202 2.09004 2.12121 1.98997 2.22222C1.98997 2.32323 1.8899 2.42424 1.98997 2.52525L6.19298 8.48485C6.79341 9.39394 6.79341 10.6061 6.19298 11.5152L1.98997 17.4747C1.98997 17.5758 1.98997 17.6768 1.98997 17.7778C1.98997 17.8788 2.09004 17.9798 2.29018 17.9798H7.99427C8.49463 17.9798 8.89491 17.7778 9.19513 17.3737L13.7984 10.8081C14.0986 10.303 14.0986 9.69697 13.7984 9.19192L9.19513 2.62626C8.89491 2.22222 8.49463 2.0202 7.99427 2.0202H2.29018Z" fill="white"/>
</svg>
