<svg width="30" height="24" viewBox="0 0 30 24" fill="none" xmlns="http://www.w3.org/2000/svg">
<g clip-path="url(#clip0_635_1856)">
<path d="M2.5 11.9943V6.29018C2.5 5.38954 3.13131 4.68904 4.01515 4.28875C5.02525 3.88846 6.16161 3.98854 7.04545 4.48889L14.4949 8.6919C14.7475 8.79198 15.1263 8.79198 15.3788 8.6919L22.9545 4.38882C23.8384 3.88846 24.9747 3.88846 25.9848 4.28875C26.8687 4.68904 27.5 5.38954 27.5 6.29018V11.9943C27.5 13.0951 26.8687 14.1958 25.6061 14.7963L17.399 19.3996C15.8838 20.2001 13.8636 20.2001 12.4747 19.3996L4.26768 14.7963C3.25758 14.1958 2.5 13.0951 2.5 11.9943ZM24.9747 6.29018C24.9747 6.09004 24.8485 6.09004 24.7222 5.98997C24.596 5.98997 24.4697 5.8899 24.3434 5.98997L16.8939 10.193C15.7576 10.7934 14.2424 10.7934 13.1061 10.193L5.65656 5.98997C5.5303 5.98997 5.40404 5.98997 5.27778 5.98997C5.15151 5.98997 5.02525 6.09004 5.02525 6.29018V11.9943C5.02525 12.4946 5.27777 12.8949 5.78283 13.1951L13.9899 17.7984C14.6212 18.0986 15.3788 18.0986 16.0101 17.7984L24.2172 13.1951C24.7222 12.8949 24.9747 12.4946 24.9747 11.9943V6.29018Z" fill="black"/>
</g>
<defs>
<clipPath id="clip0_635_1856">
<rect width="24" height="30" fill="white" transform="matrix(0 1 -1 0 30 0)"/>
</clipPath>
</defs>
</svg>
